<?xml version="1.0" standalone="no"?>
<!DOCTYPE svg PUBLIC "-//W3C//DTD SVG 20010904//EN"
 "http://www.w3.org/TR/2001/REC-SVG-20010904/DTD/svg10.dtd">
<svg version="1.0" xmlns="http://www.w3.org/2000/svg"
 width="1024.000000pt" height="1024.000000pt" viewBox="0 0 1024.000000 1024.000000"
 preserveAspectRatio="xMidYMid meet">
<metadata>
Created by potrace 1.14, written by Peter Selinger 2001-2017
</metadata>
<g transform="translate(0.000000,1024.000000) scale(0.100000,-0.100000)"
fill="#000000" stroke="none">
<path d="M3990 10224 c-85 -25 -117 -48 -258 -181 -36 -35 -67 -63 -68 -63 -9
0 -518 -522 -606 -621 -13 -15 -58 -65 -100 -111 -43 -47 -88 -98 -100 -113
-12 -15 -31 -37 -42 -49 -24 -25 -42 -46 -151 -176 -44 -53 -93 -113 -110
-134 -16 -21 -39 -48 -50 -60 -11 -13 -47 -58 -80 -102 -33 -43 -68 -88 -77
-99 -22 -26 -159 -207 -178 -235 -8 -13 -19 -28 -25 -34 -5 -6 -26 -34 -44
-61 -19 -28 -40 -53 -45 -57 -7 -5 -7 -8 -1 -8 6 0 5 -4 -1 -8 -15 -9 -154
-210 -154 -222 0 -4 -4 -10 -8 -12 -12 -4 -72 -95 -72 -107 0 -6 -4 -11 -8
-11 -5 0 -15 -12 -23 -27 -8 -16 -18 -32 -22 -38 -21 -25 -97 -148 -97 -155 0
-5 -6 -15 -12 -22 -18 -18 -78 -117 -78 -128 0 -5 -3 -10 -8 -12 -7 -3 -152
-253 -223 -383 -58 -109 -239 -474 -244 -495 -1 -3 -16 -36 -34 -75 -18 -38
-51 -115 -72 -170 -22 -55 -46 -113 -54 -130 -12 -26 -72 -193 -79 -220 -2 -5
-6 -17 -9 -25 -24 -63 -107 -349 -113 -385 -1 -11 -3 -20 -4 -20 -2 0 -6 -17
-34 -155 -8 -41 -18 -91 -21 -110 -3 -19 -8 -48 -11 -65 -22 -132 -28 -242
-28 -470 0 -206 6 -352 18 -455 12 -102 19 -158 21 -185 2 -16 11 -73 21 -125
9 -52 18 -106 20 -120 1 -14 3 -25 4 -25 2 0 5 -16 14 -60 5 -27 8 -41 22
-100 2 -11 11 -47 19 -80 9 -33 17 -67 19 -75 35 -138 130 -426 178 -540 6
-14 14 -34 18 -45 41 -107 170 -377 241 -505 23 -41 50 -90 60 -109 10 -18 26
-42 35 -52 9 -11 14 -19 10 -19 -4 0 4 -15 18 -33 15 -19 26 -39 26 -45 0 -7
5 -12 10 -12 6 0 10 -6 10 -13 0 -8 9 -22 20 -32 11 -10 20 -22 20 -27 0 -4
29 -49 65 -98 36 -49 65 -92 65 -94 0 -2 9 -15 20 -28 11 -12 50 -62 88 -109
37 -47 74 -93 82 -102 8 -8 31 -34 50 -57 32 -39 68 -79 154 -170 129 -136
318 -306 494 -442 70 -54 132 -102 137 -106 6 -5 24 -17 40 -28 17 -10 35 -22
40 -27 20 -16 181 -119 215 -138 19 -11 58 -33 85 -50 28 -16 58 -33 68 -36 9
-3 17 -10 17 -16 0 -6 3 -7 7 -4 3 4 11 3 17 -2 11 -9 176 -94 186 -96 3 -1
40 -18 83 -38 43 -20 81 -37 83 -37 3 0 24 -9 47 -19 48 -22 174 -71 197 -76
13 -3 169 -55 220 -73 8 -2 22 -6 30 -8 26 -5 144 -36 160 -41 8 -4 22 -7 30
-9 33 -6 86 -17 100 -21 8 -2 24 -5 35 -8 11 -2 47 -9 80 -15 33 -7 79 -13
102 -15 23 -2 47 -6 52 -9 5 -4 36 -8 68 -11 32 -3 81 -7 108 -10 158 -17 223
-19 445 -19 222 0 340 5 455 19 154 19 280 38 335 50 22 5 66 12 110 19 9 1
21 5 28 10 6 4 12 5 12 2 0 -3 12 -1 28 5 15 6 36 12 47 13 11 2 47 11 80 21
33 9 65 18 70 19 6 1 37 10 70 20 33 10 65 19 70 21 6 1 24 8 40 14 17 7 37
14 45 16 8 2 47 15 85 30 39 14 76 27 83 30 7 2 13 4 15 3 1 -1 13 5 27 12 14
8 28 13 33 12 4 -1 7 3 7 10 0 6 3 8 6 5 4 -4 23 2 43 12 20 10 115 57 211
104 96 48 193 98 215 111 22 14 58 34 80 46 22 12 72 44 112 71 40 27 73 46
73 43 0 -2 9 4 20 14 12 11 46 37 78 58 230 156 507 400 727 639 44 48 92 100
108 116 15 17 27 34 27 39 0 4 3 10 8 12 19 8 210 253 249 318 9 17 21 30 25
30 4 0 8 4 8 10 0 11 71 113 82 118 5 2 6 7 3 12 -3 5 1 14 8 22 46 47 307
528 307 564 0 8 5 14 10 14 6 0 10 5 10 11 0 5 9 29 19 52 80 177 193 496 237
667 8 30 16 62 19 70 11 41 56 239 60 265 3 17 7 41 10 55 17 77 25 126 31
182 3 35 8 66 10 69 2 3 6 35 9 70 4 35 8 80 11 99 13 97 19 247 18 450 -1
207 -3 260 -20 360 -3 19 -7 49 -9 65 -1 17 -4 30 -5 30 -1 0 -4 20 -6 45 -3
25 -9 46 -14 48 -5 2 -7 9 -4 16 3 7 0 33 -6 57 -6 24 -13 55 -16 69 -3 14
-10 43 -16 65 -5 22 -12 47 -13 56 -2 9 -9 34 -15 55 -14 48 -24 81 -44 159
-9 33 -19 67 -23 75 -3 8 -7 20 -9 25 -1 6 -9 29 -17 52 -9 22 -13 44 -10 47
4 3 2 6 -4 6 -6 0 -14 17 -18 38 -4 20 -13 51 -20 67 -7 17 -22 55 -33 85 -11
30 -24 64 -28 75 -4 11 -8 22 -9 25 -1 3 -7 19 -14 35 -13 31 -38 92 -70 173
-11 26 -33 78 -50 115 -17 37 -31 69 -31 71 0 2 -23 53 -52 112 -29 60 -53
114 -54 121 -1 7 -12 26 -24 43 -12 16 -19 30 -16 30 3 0 -24 55 -59 123 -35
67 -76 147 -91 177 -15 30 -30 57 -33 60 -3 3 -13 18 -21 35 -24 46 -141 251
-201 350 -30 50 -62 101 -70 114 -7 14 -18 30 -22 35 -4 6 -36 56 -72 111 -35
55 -68 105 -74 112 -6 7 -11 15 -11 18 0 4 -6 12 -12 20 -12 12 -121 167 -143
204 -5 9 -12 18 -15 21 -3 3 -44 57 -90 120 -47 62 -98 130 -115 150 -16 20
-41 52 -55 70 -14 18 -30 38 -35 44 -6 6 -30 36 -55 66 -25 30 -58 70 -75 89
-16 18 -39 43 -50 56 -120 135 -171 190 -303 322 -84 84 -159 153 -167 153 -8
0 -15 4 -15 9 0 4 -28 19 -62 31 -110 41 -233 32 -342 -22 -42 -22 -291 -266
-381 -373 -27 -33 -60 -70 -72 -82 -13 -12 -23 -25 -23 -28 0 -3 -8 -13 -17
-23 -25 -26 -60 -69 -190 -233 -76 -95 -115 -146 -124 -161 -11 -17 -24 -6
-100 87 -40 50 -78 95 -84 101 -5 6 -23 28 -40 49 -16 21 -43 53 -60 71 -16
18 -41 48 -55 65 -14 18 -34 42 -45 54 -11 11 -45 49 -75 85 -30 36 -66 77
-80 91 -14 14 -45 49 -70 78 -25 28 -70 78 -100 110 -30 33 -100 108 -155 167
-115 124 -543 553 -662 663 -88 81 -136 112 -210 134 -61 18 -164 19 -223 1z
m238 -4027 c29 -8 102 -48 122 -67 8 -8 33 -38 55 -65 22 -28 42 -52 45 -55 3
-3 37 -45 75 -95 38 -49 74 -95 80 -102 5 -6 21 -26 35 -44 14 -18 45 -59 70
-90 25 -31 56 -71 70 -89 14 -18 30 -38 35 -44 6 -6 23 -29 39 -51 17 -22 33
-42 36 -45 6 -5 79 -99 130 -165 78 -104 315 -401 322 -403 4 -2 8 -10 8 -18
0 -8 3 -14 8 -14 4 0 32 -33 61 -72 30 -40 59 -77 65 -83 6 -5 24 -28 41 -50
16 -22 34 -45 40 -51 5 -7 33 -41 60 -78 28 -36 56 -65 63 -66 6 0 12 -4 12
-8 0 -4 13 -15 28 -24 55 -33 113 -46 183 -43 89 3 160 37 225 108 79 86 124
137 124 142 0 3 15 20 33 39 39 41 74 82 139 161 28 33 55 65 62 70 6 6 27 30
46 55 57 72 177 190 194 190 9 0 16 5 16 11 0 5 4 8 9 4 5 -3 12 -1 15 4 4 5
40 9 81 9 133 0 192 -46 273 -211 48 -97 100 -220 106 -249 2 -7 8 -26 15 -41
18 -46 71 -256 77 -311 4 -28 8 -53 9 -56 9 -16 19 -183 19 -315 0 -133 -3
-190 -19 -325 -4 -42 -33 -175 -45 -210 -4 -14 -18 -61 -30 -105 -13 -44 -26
-84 -30 -90 -7 -9 -44 -104 -45 -115 -2 -12 -89 -176 -126 -237 -42 -68 -122
-179 -175 -242 -38 -44 -173 -181 -179 -181 -3 0 -18 -13 -33 -30 -16 -16 -32
-30 -36 -30 -4 0 -13 -6 -20 -13 -7 -6 -25 -21 -40 -32 -15 -11 -37 -28 -48
-38 -12 -9 -27 -17 -34 -17 -7 0 -17 -6 -21 -12 -8 -13 -20 -20 -128 -78 -33
-18 -63 -37 -66 -42 -3 -5 -9 -9 -13 -9 -3 1 -31 -10 -61 -24 -31 -14 -60 -25
-65 -25 -6 0 -10 -4 -10 -10 0 -5 -7 -10 -15 -10 -8 0 -29 -6 -47 -14 -49 -21
-72 -29 -80 -28 -5 1 -8 -3 -8 -9 0 -5 -4 -8 -10 -4 -5 3 -17 1 -27 -4 -21
-12 -127 -44 -198 -61 -82 -19 -106 -24 -230 -45 -46 -8 -165 -18 -212 -19
-24 0 -43 -4 -43 -9 0 -4 -6 -5 -12 0 -17 10 -40 10 -55 0 -6 -4 -14 -4 -17 1
-3 6 -20 7 -41 2 -19 -4 -35 -5 -35 -1 0 3 -39 7 -88 7 -48 1 -109 4 -137 8
-27 3 -77 9 -110 12 -33 4 -64 9 -69 12 -5 3 -23 6 -40 8 -17 2 -41 6 -53 9
-42 10 -68 15 -93 20 -43 8 -237 70 -290 92 -8 3 -17 7 -20 7 -21 5 -149 63
-162 74 -10 8 -18 12 -18 8 0 -4 -15 1 -32 12 -18 11 -49 29 -68 40 -245 136
-483 344 -631 552 -18 25 -36 47 -41 48 -4 2 -8 8 -8 13 0 4 -20 40 -45 78
-44 68 -157 291 -148 291 3 0 1 6 -4 13 -6 6 -16 30 -22 52 -7 22 -16 49 -21
60 -18 40 -59 198 -54 206 3 5 0 9 -6 9 -7 0 -10 6 -7 13 2 6 0 26 -5 42 -5
17 -11 41 -12 55 -2 14 -6 45 -10 70 -13 81 -15 94 -21 190 -3 52 -7 110 -9
128 -1 17 2 32 6 32 5 0 4 8 -1 19 -6 10 -9 20 -7 22 2 2 7 51 11 109 4 57 8
107 10 110 2 3 6 21 9 40 13 78 17 98 37 165 36 123 90 256 163 400 38 77 73
142 76 145 4 3 15 21 25 40 10 19 26 46 35 60 38 57 95 146 99 154 2 6 28 44
58 85 29 42 59 84 66 94 16 24 13 21 168 227 72 96 142 186 155 201 13 14 24
29 24 35 0 5 8 17 18 25 9 9 31 33 47 54 48 61 76 84 138 114 49 24 70 28 125
26 37 -1 77 -5 90 -8z"/>
</g>
</svg>
